<?xml version="1.0" encoding="UTF-8" standalone="no"?>
<!-- Created with Inkscape (http://www.inkscape.org/) -->
<svg id="svg2" xmlns:rdf="http://www.w3.org/1999/02/22-rdf-syntax-ns#" xmlns="http://www.w3.org/2000/svg" xml:space="preserve" height="180" width="180" version="1.1" xmlns:cc="http://creativecommons.org/ns#" xmlns:dc="http://purl.org/dc/elements/1.1/"><metadata id="metadata8"><rdf:RDF><cc:Work rdf:about=""><dc:format>image/svg+xml</dc:format><dc:type rdf:resource="http://purl.org/dc/dcmitype/StillImage"/><dc:title/></cc:Work></rdf:RDF></metadata><defs id="defs6"><clipPath id="clipPath16" clipPathUnits="userSpaceOnUse"><path id="path18" d="M0,612,792,612,792,0,0,0,0,612z"/></clipPath><clipPath id="clipPath44" clipPathUnits="userSpaceOnUse"><path id="path46" d="m362.5,439.08-0.257-1.841,1.241-0.043-1.22-8.778-1.263-0.043-0.257-1.862,5.609,0,0.257,1.862-1.157,0.043,0.386,2.89c0.471,0,0.771,0.043,1.027-0.406l1.906-3.361c0.172-0.322,0.3-0.685,0.45-1.028h3.789l0.256,1.841-1.52,0.193-1.112,1.863c-0.322,0.513-0.728,0.963-1.328,1.176l0.022,0.043h0.364c1.841,0,3.361,1.114,3.617,2.998,0.086,0.621,0.215,1.285,0.215,1.926,0,1.884-1.242,2.527-2.997,2.527h-8.028zm4.131-2.205,2.783,0c0.513,0,0.942-0.15,0.942-0.749,0-0.492-0.171-1.263-0.235-1.778-0.107-0.685-0.472-0.984-1.157-0.984h-2.826l0.493,3.511z"/></clipPath><linearGradient id="linearGradient52" gradientUnits="userSpaceOnUse" gradientTransform="matrix(0,12.566406,12.566406,0,367.13037,426.51025)"><stop id="stop54" stop-color="#666769" offset="0"/><stop id="stop56" stop-color="#adafb1" offset="1"/></linearGradient><clipPath id="clipPath64" clipPathUnits="userSpaceOnUse"><path id="path66" d="m376.02,439.08-0.257-1.841,1.241-0.043-1.219-8.778-1.264-0.043-0.257-1.862,10.319,0,0.514,3.597-2.483,0-0.214-1.392-3.383,0,0.45,3.146,1.584,0-0.129-0.919,2.098,0,0.578,4.046-2.097,0-0.129-0.921-1.584,0,0.385,2.805,3.382,0-0.171-1.285,2.483,0,0.471,3.49-10.318,0z"/></clipPath><linearGradient id="linearGradient72" gradientUnits="userSpaceOnUse" gradientTransform="matrix(0,12.566406,12.566406,0,380.30518,426.51025)"><stop id="stop74" stop-color="#666769" offset="0"/><stop id="stop76" stop-color="#adafb1" offset="1"/></linearGradient><clipPath id="clipPath84" clipPathUnits="userSpaceOnUse"><path id="path86" d="m392.4,439.18-5.459-10.79-0.771-0.022-0.256-1.862,4.666,0,0.258,1.862-1.071,0.022,0.856,1.841,4.581,0,0.365-1.82-1.092-0.043-0.257-1.862,4.966,0,0.258,1.862-0.749,0.043-2.483,10.769-3.812,0zm1.199-2.548,0.257,0.643,0.064,0,0.043-0.643,0.792-4.174-3.104,0,1.948,4.174z"/></clipPath><linearGradient id="linearGradient92" gradientUnits="userSpaceOnUse" gradientTransform="matrix(0,12.673828,12.673828,0,392.67822,426.51025)"><stop id="stop94" stop-color="#666769" offset="0"/><stop id="stop96" stop-color="#adafb1" offset="1"/></linearGradient><clipPath id="clipPath104" clipPathUnits="userSpaceOnUse"><path id="path106" d="m402.05,439.08-0.257-1.862,1.242-0.022-1.22-8.778-1.264-0.043-0.256-1.862,10.318,0,0.514,3.597-2.482,0-0.215-1.392-3.383,0,1.199,8.478,1.242,0.022,0.256,1.862-5.694,0z"/></clipPath><linearGradient id="linearGradient112" gradientUnits="userSpaceOnUse" gradientTransform="matrix(0,12.566406,12.566406,0,405.71289,426.51025)"><stop id="stop114" stop-color="#666769" offset="0"/><stop id="stop116" stop-color="#adafb1" offset="1"/></linearGradient><clipPath id="clipPath124" clipPathUnits="userSpaceOnUse"><path id="path126" d="m412.71,433.51-0.237-1.605,6.745,0,0.234,1.605-6.742,0z"/></clipPath><linearGradient id="linearGradient132" gradientUnits="userSpaceOnUse" gradientTransform="matrix(0,1.6054687,1.6054687,0,415.96582,431.90479)"><stop id="stop134" stop-color="#666769" offset="0"/><stop id="stop136" stop-color="#adafb1" offset="1"/></linearGradient><clipPath id="clipPath144" clipPathUnits="userSpaceOnUse"><path id="path146" d="m421.55,439.08-0.493-3.49,2.484,0,0.171,1.263,1.435,0-1.177-8.435-1.242-0.043-0.278-1.862,5.693,0,0.28,1.862-1.243,0.022,1.178,8.456,1.434,0-0.172-1.263,2.484,0,0.492,3.49-11.046,0z"/></clipPath><linearGradient id="linearGradient152" gradientUnits="userSpaceOnUse" gradientTransform="matrix(0,12.566406,12.566406,0,426.83008,426.51025)"><stop id="stop154" stop-color="#666769" offset="0"/><stop id="stop156" stop-color="#adafb1" offset="1"/></linearGradient><clipPath id="clipPath164" clipPathUnits="userSpaceOnUse"><path id="path166" d="m433.93,439.08-0.258-1.862,1.242-0.022-1.221-8.778-1.263-0.043-0.256-1.862,5.693,0,0.258,1.862-1.242,0.022,1.242,8.799,1.242,0.022,0.256,1.862-5.693,0z"/></clipPath><linearGradient id="linearGradient172" gradientUnits="userSpaceOnUse" gradientTransform="matrix(0,12.566406,12.566406,0,435.89453,426.51025)"><stop id="stop174" stop-color="#666769" offset="0"/><stop id="stop176" stop-color="#adafb1" offset="1"/></linearGradient><clipPath id="clipPath184" clipPathUnits="userSpaceOnUse"><path id="path186" d="m450.75,439.08-2.418-6.272-0.086,0-0.855,6.272-6.059,0-0.258-1.862,1.243-0.044-1.243-8.82-1.242-0.021-0.256-1.82,5.096,0,0.256,1.82-1.157,0.021,1.049,7.386,0.064,1.091,0.151,0,0.021-0.62,1.243-7.129,2.867,0,2.912,6.979,0.279,0.792,0.149,0-0.234-1.113-1.05-7.386-1.242-0.021-0.257-1.82,5.523,0,0.258,1.82-1.242,0.021,1.242,8.82,1.242,0.044,0.256,1.862-6.252,0z"/></clipPath><linearGradient id="linearGradient192" gradientUnits="userSpaceOnUse" gradientTransform="matrix(0,12.566406,12.566406,0,448.28906,426.51025)"><stop id="stop194" stop-color="#666769" offset="0"/><stop id="stop196" stop-color="#adafb1" offset="1"/></linearGradient><clipPath id="clipPath204" clipPathUnits="userSpaceOnUse"><path id="path206" d="m458.71,439.08-0.257-1.841,1.242-0.043-1.222-8.778-1.263-0.043-0.256-1.862,10.318,0,0.514,3.597-2.483,0-0.214-1.392-3.383,0,0.449,3.146,1.584,0-0.127-0.919,2.098,0,0.578,4.046-2.098,0-0.129-0.921-1.584,0,0.386,2.805,3.382,0-0.172-1.285,2.485,0,0.47,3.49-10.318,0z"/></clipPath><linearGradient id="linearGradient212" gradientUnits="userSpaceOnUse" gradientTransform="matrix(0,12.566406,12.566406,0,462.99414,426.51025)"><stop id="stop214" stop-color="#666769" offset="0"/><stop id="stop216" stop-color="#adafb1" offset="1"/></linearGradient><clipPath id="clipPath224" clipPathUnits="userSpaceOnUse"><path id="path226" d="m475.58,439.08-0.258-1.841,1.242-0.043-1.22-8.778-1.264-0.043-0.256-1.862,7.75,0c2.612,0,3.875,0.878,4.217,3.532l0.772,5.802c0.043,0.257,0.064,0.492,0.064,0.75,0,1.969-1.415,2.483-3.17,2.483h-7.877zm4.152-2.205,2.977,0c0.514,0,0.856-0.106,0.856-0.685,0-0.107-0.022-0.214-0.044-0.321l-0.855-6.166c-0.108-0.728-0.387-0.985-1.135-0.985h-2.955l1.156,8.157z"/></clipPath><linearGradient id="linearGradient232" gradientUnits="userSpaceOnUse" gradientTransform="matrix(0,12.566406,12.566406,0,480.22559,426.51025)"><stop id="stop234" stop-color="#666769" offset="0"/><stop id="stop236" stop-color="#adafb1" offset="1"/></linearGradient><clipPath id="clipPath244" clipPathUnits="userSpaceOnUse"><path id="path246" d="m489.02,439.08-0.257-1.862,1.242-0.022-1.221-8.778-1.263-0.043-0.257-1.862,5.694,0,0.258,1.862-1.242,0.022,1.242,8.799,1.242,0.022,0.255,1.862-5.693,0z"/></clipPath><linearGradient id="linearGradient252" gradientUnits="userSpaceOnUse" gradientTransform="matrix(0,12.566406,12.566406,0,490.99219,426.51025)"><stop id="stop254" stop-color="#666769" offset="0"/><stop id="stop256" stop-color="#adafb1" offset="1"/></linearGradient><clipPath id="clipPath264" clipPathUnits="userSpaceOnUse"><path id="path266" d="m500.43,439.33c-2.097,0-3.681-0.705-4.001-2.954-0.108-0.792-0.344-1.883-0.344-2.675,0-1.627,1.264-1.949,2.654-2.121l2.891-0.342c0.385-0.042,0.707-0.128,0.707-0.556,0-0.45-0.107-0.942-0.194-1.391-0.042-0.43-0.277-0.729-0.726-0.729h-3.49l0.215,1.542h-2.571l-0.427-3.018c0.535-0.665,1.885-0.857,2.676-0.857h3.618c2.141,0,3.446,0.77,3.746,2.954,0.127,0.856,0.342,1.948,0.342,2.827,0,1.477-0.92,1.818-2.248,1.969l-3.361,0.385c-0.385,0.042-0.748,0.129-0.748,0.599,0,0.407,0.105,0.856,0.17,1.264,0.065,0.471,0.215,0.814,0.75,0.814h3.146l-0.191-1.478h2.547l0.406,2.954c-0.471,0.664-1.778,0.813-2.525,0.813h-3.042z"/></clipPath><linearGradient id="linearGradient272" gradientUnits="userSpaceOnUse" gradientTransform="matrix(0,13.101563,13.101563,0,500.57129,426.23193)"><stop id="stop274" stop-color="#666769" offset="0"/><stop id="stop276" stop-color="#adafb1" offset="1"/></linearGradient><clipPath id="clipPath284" clipPathUnits="userSpaceOnUse"><path id="path286" d="m512.53,439.36c-2.397,0-3.981-0.878-4.325-3.382l-0.876-6.358c-0.044-0.257-0.065-0.493-0.065-0.751,0-2.118,1.584-2.61,3.425-2.61h2.741c1.178,0,2.59,0.256,3.404,0.727l0.449,3.126h-2.484l-0.213-1.542h-3.106c-0.534,0-0.963,0.128-0.963,0.729,0,0.085,0,0.171,0.022,0.256l0.899,6.316c0.107,0.792,0.343,1.178,1.22,1.178h3.105l-0.192-1.457h2.482l0.429,3.125c-0.771,0.493-2.269,0.643-3.17,0.643h-2.782z"/></clipPath><linearGradient id="linearGradient292" gradientUnits="userSpaceOnUse" gradientTransform="matrix(0,13.101563,13.101563,0,512.86914,426.25342)"><stop id="stop294" stop-color="#666769" offset="0"/><stop id="stop296" stop-color="#adafb1" offset="1"/></linearGradient><clipPath id="clipPath304" clipPathUnits="userSpaceOnUse"><path id="path306" d="m527.64,439.08-0.257-1.841,1.264-0.043-1.07-7.621c-0.087-0.664-0.429-0.921-1.071-0.921h-2.655c-0.472,0-0.814,0.129-0.814,0.664,0,0.085,0,0.17,0.022,0.257l1.07,7.599,1.242,0.044,0.256,1.862h-5.715l-0.258-1.862,1.264-0.044-1.049-7.428c-0.043-0.3-0.064-0.6-0.064-0.899,0-2.205,1.519-2.59,3.404-2.59h2.996c2.57,0,3.939,0.835,4.303,3.489l1.048,7.45,1.243,0.043,0.258,1.841h-5.417z"/></clipPath><linearGradient id="linearGradient312" gradientUnits="userSpaceOnUse" gradientTransform="matrix(0,12.823242,12.823242,0,526.35352,426.25342)"><stop id="stop314" stop-color="#666769" offset="0"/><stop id="stop316" stop-color="#adafb1" offset="1"/></linearGradient><clipPath id="clipPath324" clipPathUnits="userSpaceOnUse"><path id="path326" d="m538.38,439.33c-2.098,0-3.682-0.705-4.003-2.954-0.107-0.792-0.343-1.883-0.343-2.675,0-1.627,1.264-1.949,2.655-2.121l2.89-0.342c0.385-0.042,0.707-0.128,0.707-0.556,0-0.45-0.107-0.942-0.194-1.391-0.042-0.43-0.277-0.729-0.726-0.729h-3.49l0.215,1.542h-2.57l-0.428-3.018c0.535-0.665,1.885-0.857,2.676-0.857h3.619c2.14,0,3.445,0.77,3.745,2.954,0.127,0.856,0.342,1.948,0.342,2.827,0,1.477-0.919,1.818-2.248,1.969l-3.361,0.385c-0.385,0.042-0.748,0.129-0.748,0.599,0,0.407,0.105,0.856,0.17,1.264,0.065,0.471,0.215,0.814,0.75,0.814h3.146l-0.191-1.478h2.547l0.406,2.954c-0.471,0.664-1.777,0.813-2.525,0.813h-3.041z"/></clipPath><linearGradient id="linearGradient332" gradientUnits="userSpaceOnUse" gradientTransform="matrix(0,13.101563,13.101563,0,538.52246,426.23193)"><stop id="stop334" stop-color="#666769" offset="0"/><stop id="stop336" stop-color="#adafb1" offset="1"/></linearGradient><clipPath id="clipPath344" clipPathUnits="userSpaceOnUse"><path id="path346" d="m550.24,439.33c-2.098,0-3.682-0.705-4.004-2.954-0.107-0.792-0.341-1.883-0.341-2.675,0-1.627,1.262-1.949,2.654-2.121l2.891-0.342c0.384-0.042,0.704-0.128,0.704-0.556,0-0.45-0.105-0.942-0.191-1.391-0.043-0.43-0.279-0.729-0.728-0.729h-3.491l0.215,1.542h-2.568l-0.428-3.018c0.535-0.665,1.883-0.857,2.676-0.857h3.617c2.14,0,3.447,0.77,3.746,2.954,0.129,0.856,0.344,1.948,0.344,2.827,0,1.477-0.922,1.818-2.248,1.969l-3.362,0.385c-0.386,0.042-0.75,0.129-0.75,0.599,0,0.407,0.108,0.856,0.172,1.264,0.065,0.471,0.214,0.814,0.748,0.814h3.149l-0.193-1.478h2.547l0.407,2.954c-0.47,0.664-1.777,0.813-2.527,0.813h-3.039z"/></clipPath><linearGradient id="linearGradient352" gradientUnits="userSpaceOnUse" gradientTransform="matrix(0,13.101563,13.101563,0,550.38184,426.23193)"><stop id="stop354" stop-color="#666769" offset="0"/><stop id="stop356" stop-color="#adafb1" offset="1"/></linearGradient><clipPath id="clipPath364" clipPathUnits="userSpaceOnUse"><path id="path366" d="m558.1,439.08-0.257-1.862,1.242-0.022-1.221-8.778-1.263-0.043-0.256-1.862,5.693,0,0.258,1.862-1.242,0.022,1.242,8.799,1.242,0.022,0.256,1.862-5.694,0z"/></clipPath><linearGradient id="linearGradient372" gradientUnits="userSpaceOnUse" gradientTransform="matrix(0,12.566406,12.566406,0,560.06641,426.51025)"><stop id="stop374" stop-color="#666769" offset="0"/><stop id="stop376" stop-color="#adafb1" offset="1"/></linearGradient><clipPath id="clipPath384" clipPathUnits="userSpaceOnUse"><path id="path386" d="m569.51,439.36c-2.289,0-3.725-0.878-4.067-3.232l-0.9-6.337c-0.043-0.321-0.063-0.643-0.063-0.963,0-2.164,1.412-2.569,3.297-2.569h3.832c2.59,0,3.874,0.899,4.238,3.532l0.899,6.337c0.043,0.235,0.064,0.491,0.064,0.727,0,1.991-1.476,2.505-3.232,2.505h-4.068zm-1.755-9.933c0,0.085,0,0.193,0.022,0.278l0.878,6.273c0.085,0.641,0.47,0.984,1.113,0.984h2.911c0.514,0,0.835-0.235,0.835-0.77,0-0.086,0-0.151-0.022-0.235l-0.876-6.295c-0.087-0.599-0.388-1.006-1.028-1.006h-3.084c-0.514,0-0.749,0.278-0.749,0.771"/></clipPath><linearGradient id="linearGradient392" gradientUnits="userSpaceOnUse" gradientTransform="matrix(0,13.101563,13.101563,0,570.6416,426.25342)"><stop id="stop394" stop-color="#666769" offset="0"/><stop id="stop396" stop-color="#adafb1" offset="1"/></linearGradient><clipPath id="clipPath404" clipPathUnits="userSpaceOnUse"><path id="path406" d="m587.27,439.08-0.257-1.906,1.177-0.021-0.706-4.946-0.044-0.834-0.148,0-0.258,0.813-2.869,6.894-5.05,0-0.259-1.906,1.242-0.043-1.22-8.691-1.242-0.022-0.277-1.905,4.987,0,0.278,1.905-1.156,0.022,0.814,5.781,0.064,0.855,0.129,0,0.257-0.77,3.403-7.815,3.147,0,1.498,10.662,1.178,0.021,0.258,1.906-4.946,0z"/></clipPath><linearGradient id="linearGradient412" gradientUnits="userSpaceOnUse" gradientTransform="matrix(0,12.587891,12.587891,0,584.79004,426.48877)"><stop id="stop414" stop-color="#666769" offset="0"/><stop id="stop416" stop-color="#adafb1" offset="1"/></linearGradient><clipPath id="clipPath424" clipPathUnits="userSpaceOnUse"><path id="path426" d="m597.68,439.33c-2.098,0-3.682-0.705-4.004-2.954-0.108-0.792-0.342-1.883-0.342-2.675,0-1.627,1.262-1.949,2.654-2.121l2.891-0.342c0.385-0.042,0.705-0.128,0.705-0.556,0-0.45-0.105-0.942-0.192-1.391-0.042-0.43-0.279-0.729-0.728-0.729h-3.49l0.215,1.542h-2.569l-0.427-3.018c0.535-0.665,1.883-0.857,2.676-0.857h3.617c2.14,0,3.447,0.77,3.746,2.954,0.128,0.856,0.343,1.948,0.343,2.827,0,1.477-0.921,1.818-2.248,1.969l-3.361,0.385c-0.386,0.042-0.75,0.129-0.75,0.599,0,0.407,0.107,0.856,0.172,1.264,0.065,0.471,0.213,0.814,0.748,0.814h3.149l-0.194-1.478h2.547l0.408,2.954c-0.471,0.664-1.777,0.813-2.527,0.813h-3.039z"/></clipPath><linearGradient id="linearGradient432" gradientUnits="userSpaceOnUse" gradientTransform="matrix(0,13.101563,13.101563,0,597.81543,426.23193)"><stop id="stop434" stop-color="#666769" offset="0"/><stop id="stop436" stop-color="#adafb1" offset="1"/></linearGradient><clipPath id="clipPath444" clipPathUnits="userSpaceOnUse"><path id="path446" d="M0,612,792,612,792,0,0,0,0,612z"/></clipPath><clipPath id="clipPath468" clipPathUnits="userSpaceOnUse"><path id="path470" d="m409.75,476.18-1.548-10.878c-0.176-1.238-0.264-2.432-0.264-3.67,0-0.443,0.025-0.887,0.054-1.327,0.016-0.212,0.031-0.424,0.054-0.633,0.012-0.125,0.033-0.249,0.047-0.374,0.075-0.568,0.169-1.133,0.295-1.689v-0.002c3.706,0.389,7.457,0.752,11.25,1.086-0.001,0.002-0.001,0.006-0.001,0.008-0.055,0.215-0.104,0.43-0.149,0.646-0.005,0.03-0.011,0.061-0.017,0.092-0.038,0.19-0.074,0.381-0.102,0.572-0.013,0.09-0.021,0.182-0.033,0.272-0.018,0.139-0.037,0.275-0.048,0.416-0.018,0.235-0.03,0.47-0.03,0.711,0,2.08,0.309,4.202,0.574,6.237l1.194,8.533h-11.276z"/></clipPath><linearGradient id="linearGradient476" gradientUnits="userSpaceOnUse" gradientTransform="matrix(0,28.48912,28.48912,0,414.48242,447.68652)"><stop id="stop478" stop-color="#ffef18" offset="0"/><stop id="stop480" stop-color="#ffc638" offset="1"/></linearGradient><clipPath id="clipPath488" clipPathUnits="userSpaceOnUse"><path id="path490" d="m426.33,476.18-1.195-8.578c-0.397-2.698-0.884-6.059-2.299-8.404l-0.15-0.245c3.837,0.322,7.714,0.619,11.632,0.884,1.092,2.846,1.453,6.045,2.372,12.876,0.009,0.063,0.016,0.121,0.024,0.185,0.056,0.411,0.114,0.842,0.174,1.279,0.013,0.102,0.026,0.194,0.04,0.297,0.075,0.547,0.153,1.115,0.236,1.706h-10.834z"/></clipPath><linearGradient id="linearGradient496" gradientUnits="userSpaceOnUse" gradientTransform="matrix(0,26.424911,26.424911,0,429.92773,449.75098)"><stop id="stop498" stop-color="#ffef18" offset="0"/><stop id="stop500" stop-color="#ffc638" offset="1"/></linearGradient><clipPath id="clipPath508" clipPathUnits="userSpaceOnUse"><path id="path510" d="m395.38,476.18-2.866-20.442c3.843,0.502,7.743,0.973,11.696,1.414l2.667,19.028h-11.497z"/></clipPath><linearGradient id="linearGradient516" gradientUnits="userSpaceOnUse" gradientTransform="matrix(0,31.356232,31.356232,0,399.69434,444.81934)"><stop id="stop518" stop-color="#ffef18" offset="0"/><stop id="stop520" stop-color="#ffc638" offset="1"/></linearGradient><clipPath id="clipPath528" clipPathUnits="userSpaceOnUse"><path id="path530" d="m367.61,476.18-3.485-24.86c6.487,1.188,13.203,2.281,20.116,3.281h-8.142l3.007,21.579h-11.496z"/></clipPath><linearGradient id="linearGradient536" gradientUnits="userSpaceOnUse" gradientTransform="matrix(0,38.133041,38.133041,0,374.18213,438.04248)"><stop id="stop538" stop-color="#ffef18" offset="0"/><stop id="stop540" stop-color="#ffc638" offset="1"/></linearGradient><clipPath id="clipPath548" clipPathUnits="userSpaceOnUse"><path id="path550" d="m448.93,476.35c-7.782,0-9.861-4.246-10.658-9.816l-0.938-6.508c7.519,0.479,15.177,0.852,22.954,1.114l0.493,3.49h-11.276l0.397,2.743h14.24l1.194,8.534-0.399,0.443h-16.007z"/></clipPath><linearGradient id="linearGradient556" gradientUnits="userSpaceOnUse" gradientTransform="matrix(0,25.037796,25.037796,0,451.33496,451.31543)"><stop id="stop558" stop-color="#ffef18" offset="0"/><stop id="stop560" stop-color="#ffc638" offset="1"/></linearGradient><clipPath id="clipPath568" clipPathUnits="userSpaceOnUse"><path id="path570" d="M0,612,792,612,792,0,0,0,0,612z"/></clipPath><clipPath id="clipPath596" clipPathUnits="userSpaceOnUse"><path id="path598" d="m324.07,141.31-0.158-1.128,0.761-0.026-0.748-5.377-0.773-0.026-0.158-1.143,3.437,0,0.157,1.143-0.709,0.026,0.237,1.77c0.289,0,0.472,0.026,0.629-0.249l1.167-2.059c0.105-0.197,0.184-0.419,0.275-0.631h2.323l0.156,1.129-0.931,0.118-0.682,1.141c-0.196,0.314-0.445,0.591-0.812,0.722l0.013,0.026h0.222c1.128,0,2.06,0.681,2.217,1.836,0.052,0.38,0.132,0.788,0.132,1.18,0,1.154-0.762,1.548-1.837,1.548h-4.918zm2.531-1.351,1.704,0c0.315,0,0.578-0.091,0.578-0.459,0-0.3-0.105-0.773-0.145-1.089-0.065-0.418-0.289-0.602-0.708-0.602h-1.731l0.302,2.15z"/></clipPath><linearGradient id="linearGradient604" gradientUnits="userSpaceOnUse" gradientTransform="matrix(0,7.6992187,7.6992187,0,326.91113,133.60937)"><stop id="stop606" stop-color="#666769" offset="0"/><stop id="stop608" stop-color="#adafb1" offset="1"/></linearGradient><clipPath id="clipPath616" clipPathUnits="userSpaceOnUse"><path id="path618" d="m332.36,141.31-0.157-1.128,0.76-0.026-0.747-5.377-0.774-0.026-0.157-1.143,6.322,0,0.314,2.205-1.521,0-0.131-0.853-2.072,0,0.275,1.928,0.97,0-0.079-0.564,1.286,0,0.354,2.479-1.285,0-0.079-0.565-0.97,0,0.236,1.719,2.072,0-0.105-0.787,1.522,0,0.288,2.138-6.322,0z"/></clipPath><linearGradient id="linearGradient624" gradientUnits="userSpaceOnUse" gradientTransform="matrix(0,7.6992187,7.6992187,0,334.98193,133.60937)"><stop id="stop626" stop-color="#666769" offset="0"/><stop id="stop628" stop-color="#adafb1" offset="1"/></linearGradient><clipPath id="clipPath636" clipPathUnits="userSpaceOnUse"><path id="path638" d="m342.39,141.38-3.344-6.611-0.472-0.012-0.158-1.143,2.859,0,0.158,1.143-0.655,0.012,0.523,1.129,2.808,0,0.223-1.115-0.67-0.026-0.156-1.143,3.042,0,0.158,1.143-0.46,0.026-1.521,6.597-2.335,0zm0.735-1.561,0.157,0.394,0.04,0,0.026-0.394,0.485-2.558-1.902,0,1.194,2.558z"/></clipPath><linearGradient id="linearGradient644" gradientUnits="userSpaceOnUse" gradientTransform="matrix(0,7.765625,7.765625,0,342.56201,133.60937)"><stop id="stop646" stop-color="#666769" offset="0"/><stop id="stop648" stop-color="#adafb1" offset="1"/></linearGradient><clipPath id="clipPath656" clipPathUnits="userSpaceOnUse"><path id="path658" d="m348.3,141.31-0.157-1.141,0.76-0.013-0.748-5.377-0.773-0.026-0.157-1.143,6.321,0,0.315,2.205-1.521,0-0.132-0.853-2.072,0,0.735,5.194,0.76,0.013,0.158,1.141-3.489,0z"/></clipPath><linearGradient id="linearGradient664" gradientUnits="userSpaceOnUse" gradientTransform="matrix(0,7.6992187,7.6992187,0,350.54785,133.60937)"><stop id="stop666" stop-color="#666769" offset="0"/><stop id="stop668" stop-color="#adafb1" offset="1"/></linearGradient><clipPath id="clipPath676" clipPathUnits="userSpaceOnUse"><path id="path678" d="m354.84,137.9-0.145-0.983,4.132,0,0.144,0.983-4.131,0z"/></clipPath><linearGradient id="linearGradient684" gradientUnits="userSpaceOnUse" gradientTransform="matrix(0,0.9833984,0.9833984,0,356.82861,136.91504)"><stop id="stop686" stop-color="#666769" offset="0"/><stop id="stop688" stop-color="#adafb1" offset="1"/></linearGradient><clipPath id="clipPath696" clipPathUnits="userSpaceOnUse"><path id="path698" d="m360.25,141.31-0.301-2.138,1.521,0,0.105,0.774,0.879,0-0.721-5.167-0.761-0.026-0.17-1.143,3.488,0,0.171,1.143-0.761,0.012,0.722,5.181,0.878,0-0.105-0.774,1.522,0,0.301,2.138-6.768,0z"/></clipPath><linearGradient id="linearGradient704" gradientUnits="userSpaceOnUse" gradientTransform="matrix(0,7.6992187,7.6992187,0,363.48437,133.60937)"><stop id="stop706" stop-color="#666769" offset="0"/><stop id="stop708" stop-color="#adafb1" offset="1"/></linearGradient><clipPath id="clipPath716" clipPathUnits="userSpaceOnUse"><path id="path718" d="m367.83,141.31-0.158-1.141,0.762-0.013-0.748-5.377-0.775-0.026-0.156-1.143,3.488,0,0.158,1.143-0.762,0.012,0.762,5.391,0.761,0.013,0.156,1.141-3.488,0z"/></clipPath><linearGradient id="linearGradient724" gradientUnits="userSpaceOnUse" gradientTransform="matrix(0,7.6992187,7.6992187,0,369.0376,133.60937)"><stop id="stop726" stop-color="#666769" offset="0"/><stop id="stop728" stop-color="#adafb1" offset="1"/></linearGradient><clipPath id="clipPath736" clipPathUnits="userSpaceOnUse"><path id="path738" d="m378.14,141.31-1.482-3.842-0.053,0-0.524,3.842-3.711,0-0.158-1.141,0.761-0.026-0.761-5.404-0.761-0.013-0.157-1.116,3.122,0,0.157,1.116-0.708,0.013,0.642,4.524,0.04,0.67,0.092,0,0.012-0.38,0.762-4.368,1.756,0,1.784,4.276,0.171,0.485,0.091,0-0.144-0.683-0.643-4.524-0.76-0.013-0.158-1.116,3.384,0,0.158,1.116-0.761,0.013,0.761,5.404,0.76,0.026,0.158,1.141-3.83,0z"/></clipPath><linearGradient id="linearGradient744" gradientUnits="userSpaceOnUse" gradientTransform="matrix(0,7.6992187,7.6992187,0,376.63086,133.60937)"><stop id="stop746" stop-color="#666769" offset="0"/><stop id="stop748" stop-color="#adafb1" offset="1"/></linearGradient><clipPath id="clipPath756" clipPathUnits="userSpaceOnUse"><path id="path758" d="m383.02,141.31-0.158-1.128,0.761-0.026-0.748-5.377-0.774-0.026-0.157-1.143,6.321,0,0.315,2.205-1.521,0-0.132-0.853-2.072,0,0.275,1.928,0.97,0-0.077-0.564,1.285,0,0.354,2.479-1.285,0-0.079-0.565-0.97,0,0.236,1.719,2.072,0-0.106-0.787,1.522,0,0.289,2.138-6.321,0z"/></clipPath><linearGradient id="linearGradient764" gradientUnits="userSpaceOnUse" gradientTransform="matrix(0,7.6992187,7.6992187,0,385.63916,133.60937)"><stop id="stop766" stop-color="#666769" offset="0"/><stop id="stop768" stop-color="#adafb1" offset="1"/></linearGradient><clipPath id="clipPath776" clipPathUnits="userSpaceOnUse"><path id="path778" d="m393.35,141.31-0.158-1.128,0.762-0.026-0.747-5.377-0.775-0.026-0.157-1.143,4.747,0c1.6,0,2.375,0.54,2.584,2.167l0.472,3.553c0.028,0.157,0.041,0.301,0.041,0.458,0,1.207-0.867,1.522-1.942,1.522h-4.827zm2.545-1.351,1.823,0c0.314,0,0.524-0.065,0.524-0.419,0-0.066-0.013-0.132-0.026-0.197l-0.525-3.779c-0.065-0.444-0.237-0.602-0.695-0.602h-1.81l0.709,4.997z"/></clipPath><linearGradient id="linearGradient784" gradientUnits="userSpaceOnUse" gradientTransform="matrix(0,7.6992187,7.6992187,0,396.19629,133.60937)"><stop id="stop786" stop-color="#666769" offset="0"/><stop id="stop788" stop-color="#adafb1" offset="1"/></linearGradient><clipPath id="clipPath796" clipPathUnits="userSpaceOnUse"><path id="path798" d="m401.59,141.31-0.158-1.141,0.76-0.013-0.748-5.377-0.774-0.026-0.156-1.143,3.488,0,0.157,1.143-0.761,0.012,0.761,5.391,0.761,0.013,0.158,1.141-3.488,0z"/></clipPath><linearGradient id="linearGradient804" gradientUnits="userSpaceOnUse" gradientTransform="matrix(0,7.6992187,7.6992187,0,402.79199,133.60937)"><stop id="stop806" stop-color="#666769" offset="0"/><stop id="stop808" stop-color="#adafb1" offset="1"/></linearGradient><clipPath id="clipPath816" clipPathUnits="userSpaceOnUse"><path id="path818" d="m408.58,141.47c-1.285,0-2.257-0.432-2.452-1.809-0.066-0.486-0.211-1.154-0.211-1.639,0-0.998,0.775-1.194,1.626-1.299l1.771-0.209c0.236-0.027,0.433-0.079,0.433-0.342,0-0.275-0.066-0.579-0.118-0.853-0.027-0.262-0.17-0.446-0.445-0.446h-2.139l0.133,0.945h-1.575l-0.262-1.849c0.327-0.408,1.154-0.525,1.639-0.525h2.217c1.312,0,2.111,0.472,2.294,1.81,0.079,0.526,0.21,1.194,0.21,1.731,0,0.905-0.564,1.115-1.378,1.207l-2.058,0.235c-0.236,0.026-0.458,0.08-0.458,0.368,0,0.249,0.064,0.524,0.104,0.775,0.04,0.289,0.132,0.497,0.458,0.497h1.929l-0.118-0.904h1.561l0.249,1.809c-0.289,0.407-1.089,0.498-1.548,0.498h-1.862z"/></clipPath><linearGradient id="linearGradient824" gradientUnits="userSpaceOnUse" gradientTransform="matrix(0,8.0263672,8.0263672,0,408.66016,133.44043)"><stop id="stop826" stop-color="#666769" offset="0"/><stop id="stop828" stop-color="#adafb1" offset="1"/></linearGradient><clipPath id="clipPath836" clipPathUnits="userSpaceOnUse"><path id="path838" d="m415.98,141.48c-1.469,0-2.439-0.537-2.65-2.072l-0.537-3.894c-0.026-0.158-0.039-0.303-0.039-0.46,0-1.298,0.969-1.6,2.099-1.6h1.678c0.721,0,1.587,0.156,2.085,0.445l0.275,1.916h-1.522l-0.129-0.945h-1.903c-0.329,0-0.59,0.078-0.59,0.446,0,0.053,0,0.106,0.014,0.157l0.549,3.87c0.066,0.486,0.211,0.721,0.748,0.721h1.903l-0.119-0.892h1.522l0.262,1.915c-0.473,0.301-1.39,0.393-1.942,0.393h-1.704z"/></clipPath><linearGradient id="linearGradient844" gradientUnits="userSpaceOnUse" gradientTransform="matrix(0,8.0263672,8.0263672,0,416.19434,133.45312)"><stop id="stop846" stop-color="#666769" offset="0"/><stop id="stop848" stop-color="#adafb1" offset="1"/></linearGradient><clipPath id="clipPath856" clipPathUnits="userSpaceOnUse"><path id="path858" d="m425.24,141.31-0.158-1.128,0.774-0.026-0.655-4.669c-0.053-0.406-0.263-0.565-0.656-0.565h-1.627c-0.288,0-0.498,0.079-0.498,0.407,0,0.053,0,0.106,0.014,0.158l0.655,4.656,0.76,0.026,0.158,1.141h-3.501l-0.159-1.141,0.775-0.026-0.642-4.553c-0.027-0.182-0.041-0.366-0.041-0.55,0-1.35,0.931-1.586,2.086-1.586h1.836c1.575,0,2.413,0.512,2.635,2.136l0.642,4.566,0.762,0.026,0.158,1.128h-3.318z"/></clipPath><linearGradient id="linearGradient864" gradientUnits="userSpaceOnUse" gradientTransform="matrix(0,7.8554687,7.8554687,0,424.45508,133.45312)"><stop id="stop866" stop-color="#666769" offset="0"/><stop id="stop868" stop-color="#adafb1" offset="1"/></linearGradient><clipPath id="clipPath876" clipPathUnits="userSpaceOnUse"><path id="path878" d="m431.82,141.47c-1.285,0-2.256-0.432-2.451-1.809-0.067-0.486-0.212-1.154-0.212-1.639,0-0.998,0.774-1.194,1.627-1.299l1.771-0.209c0.236-0.027,0.433-0.079,0.433-0.342,0-0.275-0.066-0.579-0.118-0.853-0.026-0.262-0.17-0.446-0.447-0.446h-2.137l0.132,0.945h-1.575l-0.261-1.849c0.327-0.408,1.153-0.525,1.638-0.525h2.217c1.312,0,2.11,0.472,2.296,1.81,0.077,0.526,0.21,1.194,0.21,1.731,0,0.905-0.566,1.115-1.377,1.207l-2.061,0.235c-0.235,0.026-0.458,0.08-0.458,0.368,0,0.249,0.064,0.524,0.104,0.775,0.039,0.289,0.132,0.497,0.46,0.497h1.928l-0.117-0.904h1.559l0.25,1.809c-0.288,0.407-1.089,0.498-1.547,0.498h-1.864z"/></clipPath><linearGradient id="linearGradient884" gradientUnits="userSpaceOnUse" gradientTransform="matrix(0,8.0263672,8.0263672,0,431.91016,133.44043)"><stop id="stop886" stop-color="#666769" offset="0"/><stop id="stop888" stop-color="#adafb1" offset="1"/></linearGradient><clipPath id="clipPath896" clipPathUnits="userSpaceOnUse"><path id="path898" d="m439.09,141.47c-1.285,0-2.256-0.432-2.453-1.809-0.067-0.486-0.209-1.154-0.209-1.639,0-0.998,0.772-1.194,1.624-1.299l1.773-0.209c0.235-0.027,0.431-0.079,0.431-0.342,0-0.275-0.064-0.579-0.117-0.853-0.026-0.262-0.171-0.446-0.446-0.446h-2.139l0.132,0.945h-1.574l-0.262-1.849c0.329-0.408,1.154-0.525,1.639-0.525h2.217c1.312,0,2.111,0.472,2.295,1.81,0.078,0.526,0.21,1.194,0.21,1.731,0,0.905-0.566,1.115-1.377,1.207l-2.06,0.235c-0.236,0.026-0.459,0.08-0.459,0.368,0,0.249,0.067,0.524,0.106,0.775,0.039,0.289,0.13,0.497,0.458,0.497h1.928l-0.118-0.904h1.56l0.251,1.809c-0.289,0.407-1.09,0.498-1.549,0.498h-1.861z"/></clipPath><linearGradient id="linearGradient904" gradientUnits="userSpaceOnUse" gradientTransform="matrix(0,8.0263672,8.0263672,0,439.17578,133.44043)"><stop id="stop906" stop-color="#666769" offset="0"/><stop id="stop908" stop-color="#adafb1" offset="1"/></linearGradient><clipPath id="clipPath916" clipPathUnits="userSpaceOnUse"><path id="path918" d="m443.9,141.31-0.159-1.141,0.762-0.013-0.748-5.377-0.774-0.026-0.157-1.143,3.488,0,0.158,1.143-0.761,0.012,0.761,5.391,0.761,0.013,0.157,1.141-3.488,0z"/></clipPath><linearGradient id="linearGradient924" gradientUnits="userSpaceOnUse" gradientTransform="matrix(0,7.6992187,7.6992187,0,445.10742,133.60937)"><stop id="stop926" stop-color="#666769" offset="0"/><stop id="stop928" stop-color="#adafb1" offset="1"/></linearGradient><clipPath id="clipPath936" clipPathUnits="userSpaceOnUse"><path id="path938" d="m450.89,141.48c-1.403,0-2.282-0.537-2.491-1.98l-0.553-3.882c-0.026-0.196-0.038-0.394-0.038-0.591,0-1.324,0.866-1.573,2.02-1.573h2.349c1.586,0,2.371,0.551,2.597,2.164l0.548,3.882c0.027,0.143,0.04,0.302,0.04,0.446,0,1.219-0.904,1.534-1.98,1.534h-2.492zm-1.075-6.085c0,0.052,0,0.119,0.013,0.169l0.537,3.844c0.052,0.394,0.288,0.603,0.682,0.603h1.785c0.314,0,0.511-0.143,0.511-0.471,0-0.053,0-0.092-0.014-0.144l-0.536-3.856c-0.053-0.367-0.237-0.618-0.63-0.618h-1.889c-0.316,0-0.459,0.172-0.459,0.473"/></clipPath><linearGradient id="linearGradient944" gradientUnits="userSpaceOnUse" gradientTransform="matrix(0,8.0263672,8.0263672,0,451.58594,133.45312)"><stop id="stop946" stop-color="#666769" offset="0"/><stop id="stop948" stop-color="#adafb1" offset="1"/></linearGradient><clipPath id="clipPath956" clipPathUnits="userSpaceOnUse"><path id="path958" d="m461.78,141.31-0.159-1.167,0.722-0.013-0.433-3.03-0.026-0.511-0.091,0-0.158,0.498-1.758,4.223-3.095,0-0.157-1.167,0.761-0.026-0.748-5.325-0.761-0.013-0.17-1.169,3.056,0,0.17,1.169-0.708,0.013,0.499,3.54,0.039,0.525,0.079,0,0.156-0.472,2.087-4.787,1.927,0,0.918,6.532,0.721,0.013,0.158,1.167-3.029,0z"/></clipPath><linearGradient id="linearGradient964" gradientUnits="userSpaceOnUse" gradientTransform="matrix(0,7.7119141,7.7119141,0,460.25391,133.59668)"><stop id="stop966" stop-color="#666769" offset="0"/><stop id="stop968" stop-color="#adafb1" offset="1"/></linearGradient><clipPath id="clipPath976" clipPathUnits="userSpaceOnUse"><path id="path978" d="m468.15,141.47c-1.285,0-2.255-0.432-2.453-1.809-0.065-0.486-0.209-1.154-0.209-1.639,0-0.998,0.772-1.194,1.627-1.299l1.77-0.209c0.235-0.027,0.431-0.079,0.431-0.342,0-0.275-0.064-0.579-0.117-0.853-0.026-0.262-0.171-0.446-0.446-0.446h-2.139l0.133,0.945h-1.574l-0.262-1.849c0.328-0.408,1.154-0.525,1.638-0.525h2.218c1.311,0,2.112,0.472,2.295,1.81,0.078,0.526,0.21,1.194,0.21,1.731,0,0.905-0.565,1.115-1.377,1.207l-2.06,0.235c-0.236,0.026-0.458,0.08-0.458,0.368,0,0.249,0.065,0.524,0.105,0.775,0.039,0.289,0.13,0.497,0.458,0.497h1.929l-0.119-0.904h1.559l0.252,1.809c-0.289,0.407-1.089,0.498-1.549,0.498h-1.862z"/></clipPath><linearGradient id="linearGradient984" gradientUnits="userSpaceOnUse" gradientTransform="matrix(0,8.0263672,8.0263672,0,468.23437,133.44043)"><stop id="stop986" stop-color="#666769" offset="0"/><stop id="stop988" stop-color="#adafb1" offset="1"/></linearGradient><clipPath id="clipPath996" clipPathUnits="userSpaceOnUse"><path id="path998" d="M0,612,792,612,792,0,0,0,0,612z"/></clipPath><clipPath id="clipPath1020" clipPathUnits="userSpaceOnUse"><path id="path1022" d="m353.02,164.04-0.948-6.664c-0.109-0.759-0.162-1.489-0.162-2.248,0-0.272,0.015-0.544,0.033-0.814,0.01-0.128,0.019-0.259,0.033-0.388,0.008-0.076,0.02-0.152,0.029-0.227,0.045-0.35,0.103-0.695,0.18-1.036l0.001-0.001c2.27,0.238,4.568,0.46,6.891,0.665-0.001,0.001-0.001,0.003-0.001,0.005-0.033,0.132-0.063,0.264-0.09,0.396-0.004,0.018-0.007,0.036-0.011,0.056-0.023,0.116-0.045,0.233-0.062,0.351-0.008,0.054-0.014,0.111-0.02,0.166-0.011,0.086-0.024,0.169-0.03,0.254-0.011,0.145-0.019,0.288-0.019,0.436,0,1.274,0.19,2.574,0.352,3.821l0.732,5.228h-6.908z"/></clipPath><linearGradient id="linearGradient1028" gradientUnits="userSpaceOnUse" gradientTransform="matrix(0,17.452835,17.452835,0,355.91943,146.58398)"><stop id="stop1030" stop-color="#ffef18" offset="0"/><stop id="stop1032" stop-color="#ffc638" offset="1"/></linearGradient><clipPath id="clipPath1040" clipPathUnits="userSpaceOnUse"><path id="path1042" d="m363.18,164.04-0.732-5.255c-0.243-1.653-0.542-3.713-1.409-5.148l-0.091-0.151c2.35,0.197,4.726,0.379,7.126,0.541,0.669,1.744,0.889,3.704,1.452,7.889,0.006,0.038,0.01,0.073,0.016,0.113,0.033,0.251,0.069,0.515,0.106,0.784,0.008,0.062,0.016,0.119,0.024,0.181,0.046,0.336,0.094,0.684,0.145,1.046h-6.637z"/></clipPath><linearGradient id="linearGradient1048" gradientUnits="userSpaceOnUse" gradientTransform="matrix(0,16.188553,16.188553,0,365.38232,147.84863)"><stop id="stop1050" stop-color="#ffef18" offset="0"/><stop id="stop1052" stop-color="#ffc638" offset="1"/></linearGradient><clipPath id="clipPath1060" clipPathUnits="userSpaceOnUse"><path id="path1062" d="m344.22,164.04-1.755-12.523c2.353,0.307,4.743,0.596,7.165,0.866l1.633,11.657h-7.043z"/></clipPath><linearGradient id="linearGradient1068" gradientUnits="userSpaceOnUse" gradientTransform="matrix(0,19.209946,19.209946,0,346.86084,144.82715)"><stop id="stop1070" stop-color="#ffef18" offset="0"/><stop id="stop1072" stop-color="#ffc638" offset="1"/></linearGradient><clipPath id="clipPath1080" clipPathUnits="userSpaceOnUse"><path id="path1082" d="m327.2,164.04-2.135-15.23c3.975,0.727,8.089,1.397,12.324,2.01h-4.988l1.842,13.22h-7.043z"/></clipPath><linearGradient id="linearGradient1088" gradientUnits="userSpaceOnUse" gradientTransform="matrix(0,23.36232,23.36232,0,331.23096,140.6748)"><stop id="stop1090" stop-color="#ffef18" offset="0"/><stop id="stop1092" stop-color="#ffc638" offset="1"/></linearGradient><clipPath id="clipPath1100" clipPathUnits="userSpaceOnUse"><path id="path1102" d="m377.02,164.15c-4.767,0-6.041-2.601-6.529-6.014l-0.574-3.985c4.605,0.292,9.297,0.52,14.062,0.681l0.302,2.137h-6.909l0.244,1.682h8.723l0.732,5.227-0.244,0.272h-9.807z"/></clipPath><linearGradient id="linearGradient1108" gradientUnits="userSpaceOnUse" gradientTransform="matrix(0,15.337708,15.337708,0,378.49658,148.80762)"><stop id="stop1110" stop-color="#ffef18" offset="0"/><stop id="stop1112" stop-color="#ffc638" offset="1"/></linearGradient></defs><g id="g10" transform="matrix(1.25,0,0,-1.25,-43.289149,703.71063)"><g id="g12"><g id="g14" clip-path="url(#clipPath16)"><g id="g20" transform="translate(532.9844,454.8179)"><path id="path22" fill-rule="nonzero" fill="#666769" d="m0,0,0.441,3.096,13.09,0,0.84,6.146-13.089,0,0.398,2.875c0.309,2.122,1.768,3.316,4.024,3.316h13.089l0.796,5.704-0.354,0.399h-14.636c-6.988,0-9.906-3.715-10.702-9.596l-1.68-11.807c-0.929-6.545,1.636-9.551,8.401-9.551h14.328l0.398,0.354,0.796,5.748h-12.956c-2.211,0-3.494,1.193-3.184,3.316"/></g><g id="g24" transform="translate(476.6836,470.1621)"><path id="path26" fill-rule="nonzero" fill="#666769" d="m0,0,8.932,0c1.371,0,2.123-0.486,1.901-1.99l-0.84-6.147c-0.221-1.502-1.105-1.988-2.52-1.988h-8.933l1.46,10.125zm-2.3-16.051,9.773,0c5.925,0,9.551,2.609,10.303,8.136l0.796,5.438c0.796,5.838-1.636,8.491-7.65,8.491h-17.865l-4.333-30.6h7.782l1.194,8.535z"/></g><g id="g28" transform="translate(589.3105,468.4824)"><path id="path30" fill-rule="nonzero" fill="#666769" d="m0,0c0.133,0.84,0.575,1.769,2.211,1.769h14.018l0.795,5.749-0.353,0.353h-15.875c-5.926,0-7.96-3.494-8.446-6.943l-0.884-6.28c-0.487-3.492,0.752-5.881,5.97-5.881h8.534c1.149,0,1.724-0.398,1.548-1.725l-0.354-2.564c-0.089-0.619-0.31-1.459-1.946-1.459h-14.637l-0.796-5.705,0.266-0.397h16.272c5.218,0,7.871,2.475,8.535,7.34l0.884,6.102c0.531,3.803-1.679,5.484-5.748,5.484h-8.889c-0.795,0-1.635,0.221-1.459,1.593l0.354,2.564z"/></g><g id="g32" transform="translate(559.1797,457.2495)"><path id="path34" fill-rule="nonzero" fill="#666769" d="m0,0,8.534,0c1.15,0,1.725-0.398,1.548-1.725l-0.353-2.564c-0.089-0.619-0.31-1.459-1.947-1.459h-14.636l-0.796-5.705,0.265-0.397h16.273c5.217,0,7.871,2.475,8.535,7.34l0.884,6.102c0.531,3.803-1.68,5.484-5.748,5.484h-8.889c-0.796,0-1.636,0.221-1.459,1.592l0.353,2.565c0.133,0.84,0.576,1.768,2.211,1.768h14.018l0.796,5.749-0.354,0.354h-15.875c-5.925,0-7.96-3.494-8.446-6.943l-0.884-6.28c-0.486-3.492,0.752-5.881,5.97-5.881"/></g><g id="g36" transform="translate(505.6387,470.1621)"><path id="path38" fill-rule="nonzero" fill="#666769" d="m0,0,8.844,0c1.371,0,2.167-0.486,1.945-1.99l-0.796-5.837c-0.221-1.504-0.929-2.431-2.3-2.431h-9.153l1.46,10.258zm-3.494-24.586,1.15,8.091,7.695,0c1.856,0,3.449-0.132,3.05-2.74l-0.752-5.351h7.784l0.796,5.615c0.486,3.449-1.592,4.91-4.644,5.66l0.045,0.266c2.697,0.531,5.615,1.902,6.367,7.252l0.53,3.671c0.664,4.819-1.237,8.136-7.163,8.136h-18.307l-4.333-30.6h7.782z"/></g></g></g><g id="g40"><g id="g42" clip-path="url(#clipPath44)"><g id="g48"><g id="g50"><path id="path58" fill="url(#linearGradient52)" d="m362.5,439.08-0.257-1.841,1.241-0.043-1.22-8.778-1.263-0.043-0.257-1.862,5.609,0,0.257,1.862-1.157,0.043,0.386,2.89c0.471,0,0.771,0.043,1.027-0.406l1.906-3.361c0.172-0.322,0.3-0.685,0.45-1.028h3.789l0.256,1.841-1.52,0.193-1.112,1.863c-0.322,0.513-0.728,0.963-1.328,1.176l0.022,0.043h0.364c1.841,0,3.361,1.114,3.617,2.998,0.086,0.621,0.215,1.285,0.215,1.926,0,1.884-1.242,2.527-2.997,2.527h-8.028zm4.131-2.205,2.783,0c0.513,0,0.942-0.15,0.942-0.749,0-0.492-0.171-1.263-0.235-1.778-0.107-0.685-0.472-0.984-1.157-0.984h-2.826l0.493,3.511z"/></g></g></g></g><g id="g60"><g id="g62" clip-path="url(#clipPath64)"><g id="g68"><g id="g70"><path id="path78" fill="url(#linearGradient72)" d="m376.02,439.08-0.257-1.841,1.241-0.043-1.219-8.778-1.264-0.043-0.257-1.862,10.319,0,0.514,3.597-2.483,0-0.214-1.392-3.383,0,0.45,3.146,1.584,0-0.129-0.919,2.098,0,0.578,4.046-2.097,0-0.129-0.921-1.584,0,0.385,2.805,3.382,0-0.171-1.285,2.483,0,0.471,3.49-10.318,0z"/></g></g></g></g><g id="g80"><g id="g82" clip-path="url(#clipPath84)"><g id="g88"><g id="g90"><path id="path98" fill="url(#linearGradient92)" d="m392.4,439.18-5.459-10.79-0.771-0.022-0.256-1.862,4.666,0,0.258,1.862-1.071,0.022,0.856,1.841,4.581,0,0.365-1.82-1.092-0.043-0.257-1.862,4.966,0,0.258,1.862-0.749,0.043-2.483,10.769-3.812,0zm1.199-2.548,0.257,0.643,0.064,0,0.043-0.643,0.792-4.174-3.104,0,1.948,4.174z"/></g></g></g></g><g id="g100"><g id="g102" clip-path="url(#clipPath104)"><g id="g108"><g id="g110"><path id="path118" fill="url(#linearGradient112)" d="m402.05,439.08-0.257-1.862,1.242-0.022-1.22-8.778-1.264-0.043-0.256-1.862,10.318,0,0.514,3.597-2.482,0-0.215-1.392-3.383,0,1.199,8.478,1.242,0.022,0.256,1.862-5.694,0z"/></g></g></g></g><g id="g120"><g id="g122" clip-path="url(#clipPath124)"><g id="g128"><g id="g130"><path id="path138" fill="url(#linearGradient132)" d="m412.71,433.51-0.237-1.605,6.745,0,0.234,1.605-6.742,0z"/></g></g></g></g><g id="g140"><g id="g142" clip-path="url(#clipPath144)"><g id="g148"><g id="g150"><path id="path158" fill="url(#linearGradient152)" d="m421.55,439.08-0.493-3.49,2.484,0,0.171,1.263,1.435,0-1.177-8.435-1.242-0.043-0.278-1.862,5.693,0,0.28,1.862-1.243,0.022,1.178,8.456,1.434,0-0.172-1.263,2.484,0,0.492,3.49-11.046,0z"/></g></g></g></g><g id="g160"><g id="g162" clip-path="url(#clipPath164)"><g id="g168"><g id="g170"><path id="path178" fill="url(#linearGradient172)" d="m433.93,439.08-0.258-1.862,1.242-0.022-1.221-8.778-1.263-0.043-0.256-1.862,5.693,0,0.258,1.862-1.242,0.022,1.242,8.799,1.242,0.022,0.256,1.862-5.693,0z"/></g></g></g></g><g id="g180"><g id="g182" clip-path="url(#clipPath184)"><g id="g188"><g id="g190"><path id="path198" fill="url(#linearGradient192)" d="m450.75,439.08-2.418-6.272-0.086,0-0.855,6.272-6.059,0-0.258-1.862,1.243-0.044-1.243-8.82-1.242-0.021-0.256-1.82,5.096,0,0.256,1.82-1.157,0.021,1.049,7.386,0.064,1.091,0.151,0,0.021-0.62,1.243-7.129,2.867,0,2.912,6.979,0.279,0.792,0.149,0-0.234-1.113-1.05-7.386-1.242-0.021-0.257-1.82,5.523,0,0.258,1.82-1.242,0.021,1.242,8.82,1.242,0.044,0.256,1.862-6.252,0z"/></g></g></g></g><g id="g200"><g id="g202" clip-path="url(#clipPath204)"><g id="g208"><g id="g210"><path id="path218" fill="url(#linearGradient212)" d="m458.71,439.08-0.257-1.841,1.242-0.043-1.222-8.778-1.263-0.043-0.256-1.862,10.318,0,0.514,3.597-2.483,0-0.214-1.392-3.383,0,0.449,3.146,1.584,0-0.127-0.919,2.098,0,0.578,4.046-2.098,0-0.129-0.921-1.584,0,0.386,2.805,3.382,0-0.172-1.285,2.485,0,0.47,3.49-10.318,0z"/></g></g></g></g><g id="g220"><g id="g222" clip-path="url(#clipPath224)"><g id="g228"><g id="g230"><path id="path238" fill="url(#linearGradient232)" d="m475.58,439.08-0.258-1.841,1.242-0.043-1.22-8.778-1.264-0.043-0.256-1.862,7.75,0c2.612,0,3.875,0.878,4.217,3.532l0.772,5.802c0.043,0.257,0.064,0.492,0.064,0.75,0,1.969-1.415,2.483-3.17,2.483h-7.877zm4.152-2.205,2.977,0c0.514,0,0.856-0.106,0.856-0.685,0-0.107-0.022-0.214-0.044-0.321l-0.855-6.166c-0.108-0.728-0.387-0.985-1.135-0.985h-2.955l1.156,8.157z"/></g></g></g></g><g id="g240"><g id="g242" clip-path="url(#clipPath244)"><g id="g248"><g id="g250"><path id="path258" fill="url(#linearGradient252)" d="m489.02,439.08-0.257-1.862,1.242-0.022-1.221-8.778-1.263-0.043-0.257-1.862,5.694,0,0.258,1.862-1.242,0.022,1.242,8.799,1.242,0.022,0.255,1.862-5.693,0z"/></g></g></g></g><g id="g260"><g id="g262" clip-path="url(#clipPath264)"><g id="g268"><g id="g270"><path id="path278" fill="url(#linearGradient272)" d="m500.43,439.33c-2.097,0-3.681-0.705-4.001-2.954-0.108-0.792-0.344-1.883-0.344-2.675,0-1.627,1.264-1.949,2.654-2.121l2.891-0.342c0.385-0.042,0.707-0.128,0.707-0.556,0-0.45-0.107-0.942-0.194-1.391-0.042-0.43-0.277-0.729-0.726-0.729h-3.49l0.215,1.542h-2.571l-0.427-3.018c0.535-0.665,1.885-0.857,2.676-0.857h3.618c2.141,0,3.446,0.77,3.746,2.954,0.127,0.856,0.342,1.948,0.342,2.827,0,1.477-0.92,1.818-2.248,1.969l-3.361,0.385c-0.385,0.042-0.748,0.129-0.748,0.599,0,0.407,0.105,0.856,0.17,1.264,0.065,0.471,0.215,0.814,0.75,0.814h3.146l-0.191-1.478h2.547l0.406,2.954c-0.471,0.664-1.778,0.813-2.525,0.813h-3.042z"/></g></g></g></g><g id="g280"><g id="g282" clip-path="url(#clipPath284)"><g id="g288"><g id="g290"><path id="path298" fill="url(#linearGradient292)" d="m512.53,439.36c-2.397,0-3.981-0.878-4.325-3.382l-0.876-6.358c-0.044-0.257-0.065-0.493-0.065-0.751,0-2.118,1.584-2.61,3.425-2.61h2.741c1.178,0,2.59,0.256,3.404,0.727l0.449,3.126h-2.484l-0.213-1.542h-3.106c-0.534,0-0.963,0.128-0.963,0.729,0,0.085,0,0.171,0.022,0.256l0.899,6.316c0.107,0.792,0.343,1.178,1.22,1.178h3.105l-0.192-1.457h2.482l0.429,3.125c-0.771,0.493-2.269,0.643-3.17,0.643h-2.782z"/></g></g></g></g><g id="g300"><g id="g302" clip-path="url(#clipPath304)"><g id="g308"><g id="g310"><path id="path318" fill="url(#linearGradient312)" d="m527.64,439.08-0.257-1.841,1.264-0.043-1.07-7.621c-0.087-0.664-0.429-0.921-1.071-0.921h-2.655c-0.472,0-0.814,0.129-0.814,0.664,0,0.085,0,0.17,0.022,0.257l1.07,7.599,1.242,0.044,0.256,1.862h-5.715l-0.258-1.862,1.264-0.044-1.049-7.428c-0.043-0.3-0.064-0.6-0.064-0.899,0-2.205,1.519-2.59,3.404-2.59h2.996c2.57,0,3.939,0.835,4.303,3.489l1.048,7.45,1.243,0.043,0.258,1.841h-5.417z"/></g></g></g></g><g id="g320"><g id="g322" clip-path="url(#clipPath324)"><g id="g328"><g id="g330"><path id="path338" fill="url(#linearGradient332)" d="m538.38,439.33c-2.098,0-3.682-0.705-4.003-2.954-0.107-0.792-0.343-1.883-0.343-2.675,0-1.627,1.264-1.949,2.655-2.121l2.89-0.342c0.385-0.042,0.707-0.128,0.707-0.556,0-0.45-0.107-0.942-0.194-1.391-0.042-0.43-0.277-0.729-0.726-0.729h-3.49l0.215,1.542h-2.57l-0.428-3.018c0.535-0.665,1.885-0.857,2.676-0.857h3.619c2.14,0,3.445,0.77,3.745,2.954,0.127,0.856,0.342,1.948,0.342,2.827,0,1.477-0.919,1.818-2.248,1.969l-3.361,0.385c-0.385,0.042-0.748,0.129-0.748,0.599,0,0.407,0.105,0.856,0.17,1.264,0.065,0.471,0.215,0.814,0.75,0.814h3.146l-0.191-1.478h2.547l0.406,2.954c-0.471,0.664-1.777,0.813-2.525,0.813h-3.041z"/></g></g></g></g><g id="g340"><g id="g342" clip-path="url(#clipPath344)"><g id="g348"><g id="g350"><path id="path358" fill="url(#linearGradient352)" d="m550.24,439.33c-2.098,0-3.682-0.705-4.004-2.954-0.107-0.792-0.341-1.883-0.341-2.675,0-1.627,1.262-1.949,2.654-2.121l2.891-0.342c0.384-0.042,0.704-0.128,0.704-0.556,0-0.45-0.105-0.942-0.191-1.391-0.043-0.43-0.279-0.729-0.728-0.729h-3.491l0.215,1.542h-2.568l-0.428-3.018c0.535-0.665,1.883-0.857,2.676-0.857h3.617c2.14,0,3.447,0.77,3.746,2.954,0.129,0.856,0.344,1.948,0.344,2.827,0,1.477-0.922,1.818-2.248,1.969l-3.362,0.385c-0.386,0.042-0.75,0.129-0.75,0.599,0,0.407,0.108,0.856,0.172,1.264,0.065,0.471,0.214,0.814,0.748,0.814h3.149l-0.193-1.478h2.547l0.407,2.954c-0.47,0.664-1.777,0.813-2.527,0.813h-3.039z"/></g></g></g></g><g id="g360"><g id="g362" clip-path="url(#clipPath364)"><g id="g368"><g id="g370"><path id="path378" fill="url(#linearGradient372)" d="m558.1,439.08-0.257-1.862,1.242-0.022-1.221-8.778-1.263-0.043-0.256-1.862,5.693,0,0.258,1.862-1.242,0.022,1.242,8.799,1.242,0.022,0.256,1.862-5.694,0z"/></g></g></g></g><g id="g380"><g id="g382" clip-path="url(#clipPath384)"><g id="g388"><g id="g390"><path id="path398" fill="url(#linearGradient392)" d="m569.51,439.36c-2.289,0-3.725-0.878-4.067-3.232l-0.9-6.337c-0.043-0.321-0.063-0.643-0.063-0.963,0-2.164,1.412-2.569,3.297-2.569h3.832c2.59,0,3.874,0.899,4.238,3.532l0.899,6.337c0.043,0.235,0.064,0.491,0.064,0.727,0,1.991-1.476,2.505-3.232,2.505h-4.068zm-1.755-9.933c0,0.085,0,0.193,0.022,0.278l0.878,6.273c0.085,0.641,0.47,0.984,1.113,0.984h2.911c0.514,0,0.835-0.235,0.835-0.77,0-0.086,0-0.151-0.022-0.235l-0.876-6.295c-0.087-0.599-0.388-1.006-1.028-1.006h-3.084c-0.514,0-0.749,0.278-0.749,0.771"/></g></g></g></g><g id="g400"><g id="g402" clip-path="url(#clipPath404)"><g id="g408"><g id="g410"><path id="path418" fill="url(#linearGradient412)" d="m587.27,439.08-0.257-1.906,1.177-0.021-0.706-4.946-0.044-0.834-0.148,0-0.258,0.813-2.869,6.894-5.05,0-0.259-1.906,1.242-0.043-1.22-8.691-1.242-0.022-0.277-1.905,4.987,0,0.278,1.905-1.156,0.022,0.814,5.781,0.064,0.855,0.129,0,0.257-0.77,3.403-7.815,3.147,0,1.498,10.662,1.178,0.021,0.258,1.906-4.946,0z"/></g></g></g></g><g id="g420"><g id="g422" clip-path="url(#clipPath424)"><g id="g428"><g id="g430"><path id="path438" fill="url(#linearGradient432)" d="m597.68,439.33c-2.098,0-3.682-0.705-4.004-2.954-0.108-0.792-0.342-1.883-0.342-2.675,0-1.627,1.262-1.949,2.654-2.121l2.891-0.342c0.385-0.042,0.705-0.128,0.705-0.556,0-0.45-0.105-0.942-0.192-1.391-0.042-0.43-0.279-0.729-0.728-0.729h-3.49l0.215,1.542h-2.569l-0.427-3.018c0.535-0.665,1.883-0.857,2.676-0.857h3.617c2.14,0,3.447,0.77,3.746,2.954,0.128,0.856,0.343,1.948,0.343,2.827,0,1.477-0.921,1.818-2.248,1.969l-3.361,0.385c-0.386,0.042-0.75,0.129-0.75,0.599,0,0.407,0.107,0.856,0.172,1.264,0.065,0.471,0.213,0.814,0.748,0.814h3.149l-0.194-1.478h2.547l0.408,2.954c-0.471,0.664-1.777,0.813-2.527,0.813h-3.039z"/></g></g></g></g><g id="g440"><g id="g442" clip-path="url(#clipPath444)"><g id="g448" transform="translate(434.3301,459.8589)"><path id="path450" fill-rule="nonzero" fill="#ffc638" d="m0,0c0.063,0.166,0.125,0.334,0.184,0.503,0.004,0.01,0.006,0.02,0.01,0.03,0.939,2.719,1.309,5.924,2.168,12.317,0.009,0.063,0.017,0.121,0.025,0.186,0.055,0.41,0.114,0.84,0.174,1.278,0.013,0.102,0.026,0.194,0.04,0.297,0.075,0.548,0.153,1.115,0.236,1.706h-10.834l-1.194-8.578c-0.398-2.698-0.885-6.059-2.3-8.403l-0.15-0.246-1.972-3.246h-0.221c-0.282,1.01-0.611,1.994-0.859,2.994-0.055,0.215-0.104,0.43-0.149,0.646-0.006,0.03-0.011,0.061-0.017,0.092-0.037,0.19-0.074,0.381-0.102,0.572-0.014,0.09-0.021,0.182-0.033,0.272-0.018,0.139-0.037,0.275-0.048,0.416-0.019,0.234-0.03,0.471-0.03,0.711,0,2.08,0.309,4.202,0.574,6.237l1.194,8.533h-11.276l-1.548-10.878c-0.177-1.238-0.265-2.431-0.265-3.669,0-0.444,0.026-0.887,0.055-1.329,0.016-0.211,0.031-0.423,0.054-0.632,0.013-0.125,0.033-0.248,0.048-0.373,0.074-0.569,0.168-1.133,0.294-1.69l0.001-0.002c3.705,0.389,7.456,0.752,11.249,1.086-3.793-0.334-7.544-0.697-11.249-1.088,0.186-0.828,0.418-1.644,0.742-2.43l3.98-9.816h11.851c5.678,8.134,8.047,11.059,9.359,14.479,0.003,0.008,0.006,0.017,0.009,0.025"/></g><g id="g452" transform="translate(392.5137,455.7339)"><path id="path454" fill-rule="nonzero" fill="#ffc638" d="m0,0-1.424-10.158,11.497,0,1.622,11.572,2.667,19.028-11.497,0l-2.865-20.442z"/></g><g id="g456" transform="translate(376.0986,454.5972)"><path id="path458" fill-rule="nonzero" fill="#ffc638" d="m0,0,3.007,21.579-11.497,0-4.289-30.6,25.382,0l1.282,9.021h-5.744-8.141z"/></g><g id="g460" transform="translate(464.1416,467.377)"><path id="path462" fill-rule="nonzero" fill="#ffc638" d="m0,0,1.194,8.534-0.398,0.443-16.008,0c-7.782,0-9.861-4.246-10.657-9.817l-0.939-6.506-1.006-6.983c0-4.597,1.547-7.648,8.843-7.648h15.522l0.397,0.353,1.239,8.711h-14.239l0.354,2.653h11.276l1.062,7.517h-11.277l0.398,2.743h14.239z"/></g></g></g><g id="g464"><g id="g466" clip-path="url(#clipPath468)"><g id="g472"><g id="g474"><path id="path482" fill="url(#linearGradient476)" d="m409.75,476.18-1.548-10.878c-0.176-1.238-0.264-2.432-0.264-3.67,0-0.443,0.025-0.887,0.054-1.327,0.016-0.212,0.031-0.424,0.054-0.633,0.012-0.125,0.033-0.249,0.047-0.374,0.075-0.568,0.169-1.133,0.295-1.689v-0.002c3.706,0.389,7.457,0.752,11.25,1.086-0.001,0.002-0.001,0.006-0.001,0.008-0.055,0.215-0.104,0.43-0.149,0.646-0.005,0.03-0.011,0.061-0.017,0.092-0.038,0.19-0.074,0.381-0.102,0.572-0.013,0.09-0.021,0.182-0.033,0.272-0.018,0.139-0.037,0.275-0.048,0.416-0.018,0.235-0.03,0.47-0.03,0.711,0,2.08,0.309,4.202,0.574,6.237l1.194,8.533h-11.276z"/></g></g></g></g><g id="g484"><g id="g486" clip-path="url(#clipPath488)"><g id="g492"><g id="g494"><path id="path502" fill="url(#linearGradient496)" d="m426.33,476.18-1.195-8.578c-0.397-2.698-0.884-6.059-2.299-8.404l-0.15-0.245c3.837,0.322,7.714,0.619,11.632,0.884,1.092,2.846,1.453,6.045,2.372,12.876,0.009,0.063,0.016,0.121,0.024,0.185,0.056,0.411,0.114,0.842,0.174,1.279,0.013,0.102,0.026,0.194,0.04,0.297,0.075,0.547,0.153,1.115,0.236,1.706h-10.834z"/></g></g></g></g><g id="g504"><g id="g506" clip-path="url(#clipPath508)"><g id="g512"><g id="g514"><path id="path522" fill="url(#linearGradient516)" d="m395.38,476.18-2.866-20.442c3.843,0.502,7.743,0.973,11.696,1.414l2.667,19.028h-11.497z"/></g></g></g></g><g id="g524"><g id="g526" clip-path="url(#clipPath528)"><g id="g532"><g id="g534"><path id="path542" fill="url(#linearGradient536)" d="m367.61,476.18-3.485-24.86c6.487,1.188,13.203,2.281,20.116,3.281h-8.142l3.007,21.579h-11.496z"/></g></g></g></g><g id="g544"><g id="g546" clip-path="url(#clipPath548)"><g id="g552"><g id="g554"><path id="path562" fill="url(#linearGradient556)" d="m448.93,476.35c-7.782,0-9.861-4.246-10.658-9.816l-0.938-6.508c7.519,0.479,15.177,0.852,22.954,1.114l0.493,3.49h-11.276l0.397,2.743h14.24l1.194,8.534-0.399,0.443h-16.007z"/></g></g></g></g><g id="g564"><g id="g566" clip-path="url(#clipPath568)"><g id="g572" transform="translate(428.5166,150.9521)"><path id="path574" fill-rule="nonzero" fill="#666769" d="m0,0,0.271,1.896,8.019,0,0.515,3.766-8.02,0,0.244,1.762c0.19,1.299,1.084,2.031,2.465,2.031h8.02l0.487,3.494-0.217,0.244h-8.967c-4.28,0-6.068-2.276-6.555-5.878l-1.03-7.233c-0.569-4.01,1.002-5.852,5.147-5.852h8.777l0.244,0.217,0.488,3.522h-7.938c-1.353,0-2.139,0.73-1.95,2.031"/></g><g id="g576" transform="translate(394.0259,160.3525)"><path id="path578" fill-rule="nonzero" fill="#666769" d="m0,0,5.471,0c0.84,0,1.301-0.298,1.165-1.219l-0.513-3.766c-0.136-0.919-0.679-1.217-1.545-1.217h-5.473l0.895,6.202zm-1.409-9.833,5.987,0c3.63,0,5.851,1.599,6.312,4.984l0.487,3.331c-4.982,3.578-6.473,5.203-10.157,5.203h-10.944l-2.655-18.747h4.767l0.732,5.229z"/></g><g id="g580" transform="translate(463.0234,159.3232)"><path id="path582" fill-rule="nonzero" fill="#666769" d="m0,0c0.081,0.515,0.352,1.084,1.354,1.084h8.587l0.489,3.521-0.216,0.217h-9.727c-3.63,0-4.876-2.14-5.174-4.253l-0.542-3.847c-0.297-2.14,0.461-3.603,3.659-3.603h5.227c0.704,0,1.057-0.244,0.948-1.057l-0.216-1.571c-0.054-0.379-0.19-0.893-1.193-0.893h-8.966l-0.488-3.494,0.162-0.245h9.97c3.196,0,4.822,1.517,5.23,4.496l0.541,3.74c0.325,2.329-1.03,3.359-3.523,3.359h-5.444c-0.489,0-1.003,0.135-0.895,0.975l0.217,1.571z"/></g><g id="g584" transform="translate(444.5654,152.4424)"><path id="path586" fill-rule="nonzero" fill="#666769" d="M0,0,5.228,0c0.704,0,1.056-0.244,0.948-1.057l-0.217-1.571c-0.054-0.379-0.189-0.893-1.192-0.893h-8.966l-0.489-3.495,0.163-0.244h9.969c3.197,0,4.823,1.517,5.229,4.496l0.541,3.74c0.326,2.329-1.028,3.359-3.522,3.359h-5.444c-0.488,0-1.003,0.135-0.894,0.975l0.216,1.571c0.081,0.515,0.352,1.084,1.355,1.084h8.587l0.488,3.521-0.216,0.217h-9.726c-3.63,0-4.876-2.14-5.174-4.253l-0.542-3.847c-0.298-2.14,0.461-3.603,3.658-3.603"/></g><g id="g588" transform="translate(411.7646,160.3525)"><path id="path590" fill-rule="nonzero" fill="#666769" d="M0,0,5.418,0c0.839,0,1.327-0.298,1.191-1.219l-0.487-3.576c-0.136-0.921-0.569-1.489-1.409-1.489h-5.608l0.895,6.284zm-2.141-15.062,0.705,4.958,4.713,0c1.138,0,2.114-0.083,1.869-1.68l-0.459-3.278h4.767l0.487,3.44c0.298,2.113-0.975,3.008-2.844,3.468l0.027,0.162c1.653,0.325,3.44,1.166,3.901,4.443l-5.093,2.249c0.407,2.952-0.758,4.985-4.388,4.985h-11.216l-2.654-18.747h4.767z"/></g></g></g><g id="g592"><g id="g594" clip-path="url(#clipPath596)"><g id="g600"><g id="g602"><path id="path610" fill="url(#linearGradient604)" d="m324.07,141.31-0.158-1.128,0.761-0.026-0.748-5.377-0.773-0.026-0.158-1.143,3.437,0,0.157,1.143-0.709,0.026,0.237,1.77c0.289,0,0.472,0.026,0.629-0.249l1.167-2.059c0.105-0.197,0.184-0.419,0.275-0.631h2.323l0.156,1.129-0.931,0.118-0.682,1.141c-0.196,0.314-0.445,0.591-0.812,0.722l0.013,0.026h0.222c1.128,0,2.06,0.681,2.217,1.836,0.052,0.38,0.132,0.788,0.132,1.18,0,1.154-0.762,1.548-1.837,1.548h-4.918zm2.531-1.351,1.704,0c0.315,0,0.578-0.091,0.578-0.459,0-0.3-0.105-0.773-0.145-1.089-0.065-0.418-0.289-0.602-0.708-0.602h-1.731l0.302,2.15z"/></g></g></g></g><g id="g612"><g id="g614" clip-path="url(#clipPath616)"><g id="g620"><g id="g622"><path id="path630" fill="url(#linearGradient624)" d="m332.36,141.31-0.157-1.128,0.76-0.026-0.747-5.377-0.774-0.026-0.157-1.143,6.322,0,0.314,2.205-1.521,0-0.131-0.853-2.072,0,0.275,1.928,0.97,0-0.079-0.564,1.286,0,0.354,2.479-1.285,0-0.079-0.565-0.97,0,0.236,1.719,2.072,0-0.105-0.787,1.522,0,0.288,2.138-6.322,0z"/></g></g></g></g><g id="g632"><g id="g634" clip-path="url(#clipPath636)"><g id="g640"><g id="g642"><path id="path650" fill="url(#linearGradient644)" d="m342.39,141.38-3.344-6.611-0.472-0.012-0.158-1.143,2.859,0,0.158,1.143-0.655,0.012,0.523,1.129,2.808,0,0.223-1.115-0.67-0.026-0.156-1.143,3.042,0,0.158,1.143-0.46,0.026-1.521,6.597-2.335,0zm0.735-1.561,0.157,0.394,0.04,0,0.026-0.394,0.485-2.558-1.902,0,1.194,2.558z"/></g></g></g></g><g id="g652"><g id="g654" clip-path="url(#clipPath656)"><g id="g660"><g id="g662"><path id="path670" fill="url(#linearGradient664)" d="m348.3,141.31-0.157-1.141,0.76-0.013-0.748-5.377-0.773-0.026-0.157-1.143,6.321,0,0.315,2.205-1.521,0-0.132-0.853-2.072,0,0.735,5.194,0.76,0.013,0.158,1.141-3.489,0z"/></g></g></g></g><g id="g672"><g id="g674" clip-path="url(#clipPath676)"><g id="g680"><g id="g682"><path id="path690" fill="url(#linearGradient684)" d="m354.84,137.9-0.145-0.983,4.132,0,0.144,0.983-4.131,0z"/></g></g></g></g><g id="g692"><g id="g694" clip-path="url(#clipPath696)"><g id="g700"><g id="g702"><path id="path710" fill="url(#linearGradient704)" d="m360.25,141.31-0.301-2.138,1.521,0,0.105,0.774,0.879,0-0.721-5.167-0.761-0.026-0.17-1.143,3.488,0,0.171,1.143-0.761,0.012,0.722,5.181,0.878,0-0.105-0.774,1.522,0,0.301,2.138-6.768,0z"/></g></g></g></g><g id="g712"><g id="g714" clip-path="url(#clipPath716)"><g id="g720"><g id="g722"><path id="path730" fill="url(#linearGradient724)" d="m367.83,141.31-0.158-1.141,0.762-0.013-0.748-5.377-0.775-0.026-0.156-1.143,3.488,0,0.158,1.143-0.762,0.012,0.762,5.391,0.761,0.013,0.156,1.141-3.488,0z"/></g></g></g></g><g id="g732"><g id="g734" clip-path="url(#clipPath736)"><g id="g740"><g id="g742"><path id="path750" fill="url(#linearGradient744)" d="m378.14,141.31-1.482-3.842-0.053,0-0.524,3.842-3.711,0-0.158-1.141,0.761-0.026-0.761-5.404-0.761-0.013-0.157-1.116,3.122,0,0.157,1.116-0.708,0.013,0.642,4.524,0.04,0.67,0.092,0,0.012-0.38,0.762-4.368,1.756,0,1.784,4.276,0.171,0.485,0.091,0-0.144-0.683-0.643-4.524-0.76-0.013-0.158-1.116,3.384,0,0.158,1.116-0.761,0.013,0.761,5.404,0.76,0.026,0.158,1.141-3.83,0z"/></g></g></g></g><g id="g752"><g id="g754" clip-path="url(#clipPath756)"><g id="g760"><g id="g762"><path id="path770" fill="url(#linearGradient764)" d="m383.02,141.31-0.158-1.128,0.761-0.026-0.748-5.377-0.774-0.026-0.157-1.143,6.321,0,0.315,2.205-1.521,0-0.132-0.853-2.072,0,0.275,1.928,0.97,0-0.077-0.564,1.285,0,0.354,2.479-1.285,0-0.079-0.565-0.97,0,0.236,1.719,2.072,0-0.106-0.787,1.522,0,0.289,2.138-6.321,0z"/></g></g></g></g><g id="g772"><g id="g774" clip-path="url(#clipPath776)"><g id="g780"><g id="g782"><path id="path790" fill="url(#linearGradient784)" d="m393.35,141.31-0.158-1.128,0.762-0.026-0.747-5.377-0.775-0.026-0.157-1.143,4.747,0c1.6,0,2.375,0.54,2.584,2.167l0.472,3.553c0.028,0.157,0.041,0.301,0.041,0.458,0,1.207-0.867,1.522-1.942,1.522h-4.827zm2.545-1.351,1.823,0c0.314,0,0.524-0.065,0.524-0.419,0-0.066-0.013-0.132-0.026-0.197l-0.525-3.779c-0.065-0.444-0.237-0.602-0.695-0.602h-1.81l0.709,4.997z"/></g></g></g></g><g id="g792"><g id="g794" clip-path="url(#clipPath796)"><g id="g800"><g id="g802"><path id="path810" fill="url(#linearGradient804)" d="m401.59,141.31-0.158-1.141,0.76-0.013-0.748-5.377-0.774-0.026-0.156-1.143,3.488,0,0.157,1.143-0.761,0.012,0.761,5.391,0.761,0.013,0.158,1.141-3.488,0z"/></g></g></g></g><g id="g812"><g id="g814" clip-path="url(#clipPath816)"><g id="g820"><g id="g822"><path id="path830" fill="url(#linearGradient824)" d="m408.58,141.47c-1.285,0-2.257-0.432-2.452-1.809-0.066-0.486-0.211-1.154-0.211-1.639,0-0.998,0.775-1.194,1.626-1.299l1.771-0.209c0.236-0.027,0.433-0.079,0.433-0.342,0-0.275-0.066-0.579-0.118-0.853-0.027-0.262-0.17-0.446-0.445-0.446h-2.139l0.133,0.945h-1.575l-0.262-1.849c0.327-0.408,1.154-0.525,1.639-0.525h2.217c1.312,0,2.111,0.472,2.294,1.81,0.079,0.526,0.21,1.194,0.21,1.731,0,0.905-0.564,1.115-1.378,1.207l-2.058,0.235c-0.236,0.026-0.458,0.08-0.458,0.368,0,0.249,0.064,0.524,0.104,0.775,0.04,0.289,0.132,0.497,0.458,0.497h1.929l-0.118-0.904h1.561l0.249,1.809c-0.289,0.407-1.089,0.498-1.548,0.498h-1.862z"/></g></g></g></g><g id="g832"><g id="g834" clip-path="url(#clipPath836)"><g id="g840"><g id="g842"><path id="path850" fill="url(#linearGradient844)" d="m415.98,141.48c-1.469,0-2.439-0.537-2.65-2.072l-0.537-3.894c-0.026-0.158-0.039-0.303-0.039-0.46,0-1.298,0.969-1.6,2.099-1.6h1.678c0.721,0,1.587,0.156,2.085,0.445l0.275,1.916h-1.522l-0.129-0.945h-1.903c-0.329,0-0.59,0.078-0.59,0.446,0,0.053,0,0.106,0.014,0.157l0.549,3.87c0.066,0.486,0.211,0.721,0.748,0.721h1.903l-0.119-0.892h1.522l0.262,1.915c-0.473,0.301-1.39,0.393-1.942,0.393h-1.704z"/></g></g></g></g><g id="g852"><g id="g854" clip-path="url(#clipPath856)"><g id="g860"><g id="g862"><path id="path870" fill="url(#linearGradient864)" d="m425.24,141.31-0.158-1.128,0.774-0.026-0.655-4.669c-0.053-0.406-0.263-0.565-0.656-0.565h-1.627c-0.288,0-0.498,0.079-0.498,0.407,0,0.053,0,0.106,0.014,0.158l0.655,4.656,0.76,0.026,0.158,1.141h-3.501l-0.159-1.141,0.775-0.026-0.642-4.553c-0.027-0.182-0.041-0.366-0.041-0.55,0-1.35,0.931-1.586,2.086-1.586h1.836c1.575,0,2.413,0.512,2.635,2.136l0.642,4.566,0.762,0.026,0.158,1.128h-3.318z"/></g></g></g></g><g id="g872"><g id="g874" clip-path="url(#clipPath876)"><g id="g880"><g id="g882"><path id="path890" fill="url(#linearGradient884)" d="m431.82,141.47c-1.285,0-2.256-0.432-2.451-1.809-0.067-0.486-0.212-1.154-0.212-1.639,0-0.998,0.774-1.194,1.627-1.299l1.771-0.209c0.236-0.027,0.433-0.079,0.433-0.342,0-0.275-0.066-0.579-0.118-0.853-0.026-0.262-0.17-0.446-0.447-0.446h-2.137l0.132,0.945h-1.575l-0.261-1.849c0.327-0.408,1.153-0.525,1.638-0.525h2.217c1.312,0,2.11,0.472,2.296,1.81,0.077,0.526,0.21,1.194,0.21,1.731,0,0.905-0.566,1.115-1.377,1.207l-2.061,0.235c-0.235,0.026-0.458,0.08-0.458,0.368,0,0.249,0.064,0.524,0.104,0.775,0.039,0.289,0.132,0.497,0.46,0.497h1.928l-0.117-0.904h1.559l0.25,1.809c-0.288,0.407-1.089,0.498-1.547,0.498h-1.864z"/></g></g></g></g><g id="g892"><g id="g894" clip-path="url(#clipPath896)"><g id="g900"><g id="g902"><path id="path910" fill="url(#linearGradient904)" d="m439.09,141.47c-1.285,0-2.256-0.432-2.453-1.809-0.067-0.486-0.209-1.154-0.209-1.639,0-0.998,0.772-1.194,1.624-1.299l1.773-0.209c0.235-0.027,0.431-0.079,0.431-0.342,0-0.275-0.064-0.579-0.117-0.853-0.026-0.262-0.171-0.446-0.446-0.446h-2.139l0.132,0.945h-1.574l-0.262-1.849c0.329-0.408,1.154-0.525,1.639-0.525h2.217c1.312,0,2.111,0.472,2.295,1.81,0.078,0.526,0.21,1.194,0.21,1.731,0,0.905-0.566,1.115-1.377,1.207l-2.06,0.235c-0.236,0.026-0.459,0.08-0.459,0.368,0,0.249,0.067,0.524,0.106,0.775,0.039,0.289,0.13,0.497,0.458,0.497h1.928l-0.118-0.904h1.56l0.251,1.809c-0.289,0.407-1.09,0.498-1.549,0.498h-1.861z"/></g></g></g></g><g id="g912"><g id="g914" clip-path="url(#clipPath916)"><g id="g920"><g id="g922"><path id="path930" fill="url(#linearGradient924)" d="m443.9,141.31-0.159-1.141,0.762-0.013-0.748-5.377-0.774-0.026-0.157-1.143,3.488,0,0.158,1.143-0.761,0.012,0.761,5.391,0.761,0.013,0.157,1.141-3.488,0z"/></g></g></g></g><g id="g932"><g id="g934" clip-path="url(#clipPath936)"><g id="g940"><g id="g942"><path id="path950" fill="url(#linearGradient944)" d="m450.89,141.48c-1.403,0-2.282-0.537-2.491-1.98l-0.553-3.882c-0.026-0.196-0.038-0.394-0.038-0.591,0-1.324,0.866-1.573,2.02-1.573h2.349c1.586,0,2.371,0.551,2.597,2.164l0.548,3.882c0.027,0.143,0.04,0.302,0.04,0.446,0,1.219-0.904,1.534-1.98,1.534h-2.492zm-1.075-6.085c0,0.052,0,0.119,0.013,0.169l0.537,3.844c0.052,0.394,0.288,0.603,0.682,0.603h1.785c0.314,0,0.511-0.143,0.511-0.471,0-0.053,0-0.092-0.014-0.144l-0.536-3.856c-0.053-0.367-0.237-0.618-0.63-0.618h-1.889c-0.316,0-0.459,0.172-0.459,0.473"/></g></g></g></g><g id="g952"><g id="g954" clip-path="url(#clipPath956)"><g id="g960"><g id="g962"><path id="path970" fill="url(#linearGradient964)" d="m461.78,141.31-0.159-1.167,0.722-0.013-0.433-3.03-0.026-0.511-0.091,0-0.158,0.498-1.758,4.223-3.095,0-0.157-1.167,0.761-0.026-0.748-5.325-0.761-0.013-0.17-1.169,3.056,0,0.17,1.169-0.708,0.013,0.499,3.54,0.039,0.525,0.079,0,0.156-0.472,2.087-4.787,1.927,0,0.918,6.532,0.721,0.013,0.158,1.167-3.029,0z"/></g></g></g></g><g id="g972"><g id="g974" clip-path="url(#clipPath976)"><g id="g980"><g id="g982"><path id="path990" fill="url(#linearGradient984)" d="m468.15,141.47c-1.285,0-2.255-0.432-2.453-1.809-0.065-0.486-0.209-1.154-0.209-1.639,0-0.998,0.772-1.194,1.627-1.299l1.77-0.209c0.235-0.027,0.431-0.079,0.431-0.342,0-0.275-0.064-0.579-0.117-0.853-0.026-0.262-0.171-0.446-0.446-0.446h-2.139l0.133,0.945h-1.574l-0.262-1.849c0.328-0.408,1.154-0.525,1.638-0.525h2.218c1.311,0,2.112,0.472,2.295,1.81,0.078,0.526,0.21,1.194,0.21,1.731,0,0.905-0.565,1.115-1.377,1.207l-2.06,0.235c-0.236,0.026-0.458,0.08-0.458,0.368,0,0.249,0.065,0.524,0.105,0.775,0.039,0.289,0.13,0.497,0.458,0.497h1.929l-0.119-0.904h1.559l0.252,1.809c-0.289,0.407-1.089,0.498-1.549,0.498h-1.862z"/></g></g></g></g><g id="g992"><g id="g994" clip-path="url(#clipPath996)"><g id="g1000" transform="translate(368.0791,154.041)"><path id="path1002" fill-rule="nonzero" fill="#ffc638" d="M0,0c0.039,0.102,0.077,0.204,0.112,0.307,0.003,0.006,0.005,0.013,0.007,0.019,0.575,1.666,0.802,3.63,1.328,7.546,0.006,0.038,0.01,0.073,0.015,0.113,0.034,0.251,0.07,0.515,0.107,0.784,0.008,0.062,0.016,0.119,0.024,0.181,0.046,0.336,0.094,0.684,0.145,1.046h-6.637l-0.732-5.256c-0.243-1.652-0.542-3.712-1.409-5.147l-0.091-0.151-1.209-1.988h-0.135c-0.173,0.618-0.374,1.222-0.526,1.834-0.034,0.132-0.064,0.264-0.091,0.396-0.004,0.018-0.007,0.037-0.011,0.056-0.022,0.116-0.045,0.234-0.063,0.351-0.008,0.055-0.013,0.111-0.02,0.166-0.01,0.086-0.022,0.169-0.029,0.255-0.011,0.143-0.019,0.288-0.019,0.435,0,1.275,0.19,2.574,0.352,3.821l0.732,5.228h-6.908l-0.948-6.664c-0.109-0.759-0.162-1.489-0.162-2.248,0-0.271,0.015-0.544,0.033-0.813,0.01-0.129,0.019-0.26,0.032-0.388,0.009-0.077,0.021-0.153,0.03-0.229,0.045-0.348,0.103-0.694,0.18-1.035l0.001-0.001c2.269,0.238,4.568,0.46,6.891,0.665-2.323-0.205-4.622-0.427-6.891-0.666,0.114-0.508,0.256-1.008,0.454-1.489l2.439-6.014h7.26c3.478,4.983,4.93,6.776,5.734,8.869,0.002,0.006,0.003,0.012,0.005,0.017"/></g><g id="g1004" transform="translate(342.4614,151.5137)"><path id="path1006" fill-rule="nonzero" fill="#ffc638" d="m0,0-0.872-6.223,7.043,0,0.994,7.089,1.634,11.657-7.044,0l-1.755-12.523z"/></g><g id="g1008" transform="translate(332.4053,150.8174)"><path id="path1010" fill-rule="nonzero" fill="#ffc638" d="m0,0,1.842,13.22-7.043,0-2.628-18.746,15.55,0l0.786,5.526h-3.52-4.987z"/></g><g id="g1012" transform="translate(386.3423,158.6465)"><path id="path1014" fill-rule="nonzero" fill="#ffc638" d="m0,0,0.732,5.228-0.244,0.271-9.807,0c-4.767,0-6.041-2.601-6.529-6.014l-0.575-3.985-0.617-4.278c0-2.817,0.948-4.686,5.418-4.686h9.509l0.243,0.217,0.759,5.337h-8.723l0.217,1.624h6.908l0.651,4.605h-6.909l0.244,1.681h8.723z"/></g></g></g><g id="g1016"><g id="g1018" clip-path="url(#clipPath1020)"><g id="g1024"><g id="g1026"><path id="path1034" fill="url(#linearGradient1028)" d="m353.02,164.04-0.948-6.664c-0.109-0.759-0.162-1.489-0.162-2.248,0-0.272,0.015-0.544,0.033-0.814,0.01-0.128,0.019-0.259,0.033-0.388,0.008-0.076,0.02-0.152,0.029-0.227,0.045-0.35,0.103-0.695,0.18-1.036l0.001-0.001c2.27,0.238,4.568,0.46,6.891,0.665-0.001,0.001-0.001,0.003-0.001,0.005-0.033,0.132-0.063,0.264-0.09,0.396-0.004,0.018-0.007,0.036-0.011,0.056-0.023,0.116-0.045,0.233-0.062,0.351-0.008,0.054-0.014,0.111-0.02,0.166-0.011,0.086-0.024,0.169-0.03,0.254-0.011,0.145-0.019,0.288-0.019,0.436,0,1.274,0.19,2.574,0.352,3.821l0.732,5.228h-6.908z"/></g></g></g></g><g id="g1036"><g id="g1038" clip-path="url(#clipPath1040)"><g id="g1044"><g id="g1046"><path id="path1054" fill="url(#linearGradient1048)" d="m363.18,164.04-0.732-5.255c-0.243-1.653-0.542-3.713-1.409-5.148l-0.091-0.151c2.35,0.197,4.726,0.379,7.126,0.541,0.669,1.744,0.889,3.704,1.452,7.889,0.006,0.038,0.01,0.073,0.016,0.113,0.033,0.251,0.069,0.515,0.106,0.784,0.008,0.062,0.016,0.119,0.024,0.181,0.046,0.336,0.094,0.684,0.145,1.046h-6.637z"/></g></g></g></g><g id="g1056"><g id="g1058" clip-path="url(#clipPath1060)"><g id="g1064"><g id="g1066"><path id="path1074" fill="url(#linearGradient1068)" d="m344.22,164.04-1.755-12.523c2.353,0.307,4.743,0.596,7.165,0.866l1.633,11.657h-7.043z"/></g></g></g></g><g id="g1076"><g id="g1078" clip-path="url(#clipPath1080)"><g id="g1084"><g id="g1086"><path id="path1094" fill="url(#linearGradient1088)" d="m327.2,164.04-2.135-15.23c3.975,0.727,8.089,1.397,12.324,2.01h-4.988l1.842,13.22h-7.043z"/></g></g></g></g><g id="g1096"><g id="g1098" clip-path="url(#clipPath1100)"><g id="g1104"><g id="g1106"><path id="path1114" fill="url(#linearGradient1108)" d="m377.02,164.15c-4.767,0-6.041-2.601-6.529-6.014l-0.574-3.985c4.605,0.292,9.297,0.52,14.062,0.681l0.302,2.137h-6.909l0.244,1.682h8.723l0.732,5.227-0.244,0.272h-9.807z"/></g></g></g></g><g id="g1124" transform="translate(217.2002,179.96428)"><path id="path1126" fill-rule="nonzero" fill="#f5d644" d="M0,0-0.057-0.178,0.011,0.016,0,0z"/></g><g id="g4283" transform="translate(0.28811207,3.867444)"><g id="g1128" transform="translate(141.30263,540.35321)"><path id="path1130" d="m0,0-29.167,0-9.667-29.992,39.25,0-67.126-76.992,42.753,24.427,19.598,0c26.129,0,35.25,12.832,37.878,32.776l3.092,22.261c1.549,14.162-9.556,27.516-36.611,27.516" fill-rule="nonzero" fill="#393738"/></g><g id="g1132" transform="translate(68.050629,487.79661)"><path id="path1134" d="m0,0,7.334,52.557-32.416,0.48-7.299-50.65-0.651-4.686c-2.04-13.289,3.449-27.036,29.221-27.498h18.141l9.422,29.797h-23.752z" fill-rule="nonzero" fill="#393738"/></g><g id="g1136" transform="translate(74.660529,433.56221)"><path id="path1138" d="m0,0,8.576,24.438-0.856,0-7.788-24.631,0.057,0.178l0.011,0.015z" fill-rule="nonzero" fill="#fff215"/></g><g id="g1140" transform="translate(74.592629,433.36881)"><path id="path1142" d="m0,0,67.126,76.992-39.25,0,9.667,29.992-8.913,0-27.838,0-7.334-52.556,23.752,0-9.422-29.797,0.856,0l-8.576-24.434-0.068-0.193z" fill-rule="nonzero" fill="#ffef18"/></g><g id="g1144" transform="translate(74.649329,433.54751)"><path id="path1146" d="M0,0-0.057-0.179,0.011,0.015,0,0z" fill-rule="nonzero" fill="#f5d644"/></g><g id="g1148" transform="translate(102.46863,510.36101)"><path id="path1150" d="m0,0,9.667,29.992-8.913,0c-0.001-0.007-0.003-0.013-0.004-0.019l-9.5-35h4.83,30.67l-54.558-71.772-0.068-0.193,67.126,76.992h-39.25z" fill-rule="nonzero" fill="#ffc638"/></g></g><g id="g1152" transform="translate(283.8535,286.53068)"><path id="path1154" fill-rule="nonzero" fill="#393738" d="m0,0-29.167,0-9.667-29.992,39.25,0-67.126-76.992,42.753,24.427,19.598,0c26.129,0,35.25,12.832,37.878,32.776l3.092,22.261c1.549,14.162-9.556,27.516-36.611,27.516"/></g><g id="g1156" transform="translate(210.6016,233.97398)"><path id="path1158" fill-rule="nonzero" fill="#393738" d="m0,0,7.334,52.557-32.416,0.48-7.299-50.65-0.651-4.686c-2.04-13.289,3.449-27.036,29.221-27.498h18.141l9.422,29.797h-23.752z"/></g><g id="g1160" transform="translate(217.2114,179.73968)"><path id="path1162" fill-rule="nonzero" fill="#fff215" d="m0,0,8.576,24.438-0.856,0-7.788-24.631,0.057,0.178l0.011,0.015z"/></g><g id="g1164" transform="translate(217.1436,179.54628)"><path id="path1166" fill-rule="nonzero" fill="#ffef18" d="m0,0,67.126,76.992-39.25,0,9.667,29.992-8.913,0-27.838,0-7.334-52.556,23.752,0-9.422-29.797,0.856,0l-8.576-24.434-0.068-0.193z"/></g><g id="g1168" transform="translate(217.2002,179.72498)"><path id="path1170" fill-rule="nonzero" fill="#f5d644" d="M0,0-0.057-0.179,0.011,0.015,0,0z"/></g><g id="g1172" transform="translate(245.0195,256.53848)"><path id="path1174" fill-rule="nonzero" fill="#ffc638" d="m0,0,9.667,29.992-8.913,0c-0.001-0.007-0.003-0.013-0.004-0.019l-9.5-35h4.83,30.67l-54.558-71.772-0.068-0.193,67.126,76.992h-39.25z"/></g></g></svg>
